<?xml version="1.0" standalone="no"?>
<!DOCTYPE svg PUBLIC "-//W3C//DTD SVG 20010904//EN"
 "http://www.w3.org/TR/2001/REC-SVG-20010904/DTD/svg10.dtd">
<svg version="1.0" xmlns="http://www.w3.org/2000/svg"
 width="1024.000000pt" height="1024.000000pt" viewBox="0 0 1024.000000 1024.000000"
 preserveAspectRatio="xMidYMid meet">

<g transform="translate(0.000000,1024.000000) scale(0.100000,-0.100000)"
fill="#000000" stroke="none">
<path d="M0 5120 l0 -5120 5120 0 5120 0 0 5120 0 5120 -5120 0 -5120 0 0
-5120z m5149 2895 c7 -31 19 -68 27 -83 7 -15 34 -91 60 -169 25 -79 49 -143
54 -143 4 0 6 9 3 20 -6 23 9 27 26 6 9 -11 8 -18 -4 -30 -11 -11 -15 -27 -12
-49 3 -17 55 -180 117 -362 62 -181 128 -379 147 -440 19 -60 50 -151 69 -202
19 -51 34 -97 34 -102 0 -6 19 -60 41 -120 l41 -111 1025 0 c637 0 1031 -4
1042 -10 9 -5 11 -10 4 -10 -7 0 -81 -46 -165 -103 -84 -57 -265 -179 -403
-272 -137 -93 -281 -191 -320 -218 -38 -27 -140 -96 -225 -153 -85 -58 -184
-126 -220 -151 -36 -26 -112 -78 -170 -117 -58 -38 -111 -76 -118 -83 -7 -7
-20 -13 -28 -13 -8 0 -14 -1 -14 -2 0 -2 46 -136 102 -298 154 -451 548 -1629
548 -1642 0 -7 -17 5 -38 25 -21 21 -42 34 -47 30 -4 -5 -5 -3 -2 3 3 6 -47
45 -114 89 -163 108 -176 128 -22 34 51 -32 126 -69 138 -69 13 0 -53 210
-197 630 -167 486 -200 573 -210 558 -6 -10 -10 -10 -15 -2 -5 7 -24 13 -43
15 -19 2 -50 13 -69 26 -19 12 -38 20 -43 17 -4 -3 -8 -1 -8 4 0 5 -7 9 -15 9
-18 0 -13 -22 88 -347 19 -63 38 -133 41 -155 l7 -40 -21 50 c-11 28 -36 102
-56 165 -20 63 -73 219 -119 345 -197 551 -227 636 -224 639 6 5 318 213 542
361 114 75 217 147 229 158 12 12 18 16 14 9 -7 -11 141 81 288 181 33 22 76
50 96 61 l37 21 -748 -3 c-696 -3 -749 -2 -749 14 0 9 -31 112 -70 228 -114
348 -222 698 -301 976 -23 80 -44 152 -47 160 -3 8 -12 -14 -19 -50 -8 -36
-37 -134 -64 -218 -27 -85 -49 -158 -49 -164 0 -5 -11 -37 -23 -71 -29 -77
-40 -110 -67 -214 -12 -46 -26 -81 -30 -78 -4 2 -17 -30 -30 -73 -12 -42 -30
-102 -40 -132 -9 -30 -39 -127 -66 -215 l-49 -161 -70 2 c-38 1 -173 3 -300 4
-228 3 -229 4 -95 11 74 3 203 7 287 8 l152 1 11 43 c10 36 45 150 57 184 4
10 -20 23 -55 29 -24 4 -39 23 -52 66 l-12 43 -30 -75 c-16 -41 -37 -81 -46
-89 -14 -11 -181 -12 -1024 -7 -607 3 -1008 2 -1008 -3 0 -6 52 -42 115 -82
113 -70 137 -89 115 -89 -13 0 -216 135 -225 151 -4 6 -28 20 -54 32 l-46 22
1056 3 1055 2 73 228 c40 125 81 254 92 287 11 33 34 103 51 155 17 52 60 183
95 290 101 302 134 411 127 421 -3 5 -26 -7 -52 -28 l-47 -37 38 38 c41 43 45
60 20 90 -17 20 -17 20 0 7 9 -7 17 -10 17 -5 0 4 7 -1 15 -12 14 -18 16 -18
28 -2 7 9 42 107 77 217 36 110 67 198 70 196 4 -2 12 -29 19 -60z m78 -117
c-3 -8 -6 -5 -6 6 -1 11 2 17 5 13 3 -3 4 -12 1 -19z m21 -43 c-3 -3 -9 2 -12
12 -6 14 -5 15 5 6 7 -7 10 -15 7 -18z m10 -40 c-3 -3 -9 2 -12 12 -6 14 -5
15 5 6 7 -7 10 -15 7 -18z m9 -37 c-3 -8 -6 -5 -6 6 -1 11 2 17 5 13 3 -3 4
-12 1 -19z m48 -98 c-3 -5 -10 -10 -16 -10 -5 0 -9 5 -9 10 0 6 7 10 16 10 8
0 12 -4 9 -10z m60 -120 c10 -11 16 -20 13 -20 -3 0 -13 9 -23 20 -10 11 -16
20 -13 20 3 0 13 -9 23 -20z m-26 -20 c11 -24 11 -24 -3 -6 -9 11 -16 24 -16
30 0 12 5 7 19 -24z m86 -49 c-6 -5 -25 10 -25 20 0 5 6 4 14 -3 8 -7 12 -15
11 -17z m45 -267 c0 -2 -7 -4 -15 -4 -8 0 -15 4 -15 10 0 5 7 7 15 4 8 -4 15
-8 15 -10z m-353 -56 c-3 -8 -6 -5 -6 6 -1 11 2 17 5 13 3 -3 4 -12 1 -19z
m143 -443 c61 -198 108 -365 105 -373 -2 -7 -1 -11 3 -8 5 3 39 -89 76 -205
l68 -209 72 0 c39 0 354 0 701 0 351 0 625 -3 620 -8 -6 -5 -71 -46 -145 -92
-74 -46 -154 -96 -177 -112 -24 -16 -43 -27 -43 -24 0 6 93 72 129 91 17 9 29
20 25 26 -4 7 -194 10 -562 9 -307 -1 -580 -1 -607 -1 -59 1 -47 -21 -134 246
-34 105 -65 197 -68 205 -4 8 -7 17 -8 20 0 3 -14 46 -30 95 -16 50 -30 96
-31 103 -1 8 -6 21 -10 30 -4 9 -8 22 -9 28 -2 5 -28 91 -59 190 -68 219 -75
268 -50 322 11 22 20 37 21 33 2 -3 53 -168 113 -366z m-183 303 c-3 -8 -6 -5
-6 6 -1 11 2 17 5 13 3 -3 4 -12 1 -19z m27 -172 c-3 -15 -8 -25 -11 -23 -2 3
-1 17 3 31 3 15 8 25 11 23 2 -3 1 -17 -3 -31z m-49 -166 c3 -5 1 -10 -4 -10
-6 0 -11 5 -11 10 0 6 2 10 4 10 3 0 8 -4 11 -10z m-25 -57 c-11 -17 -11 -17
-6 0 3 10 6 24 7 30 0 9 2 9 5 0 3 -7 0 -20 -6 -30z m2891 -435 c-17 -24 -39
-54 -50 -68 -11 -14 -21 -29 -21 -34 0 -9 -47 -56 -56 -56 -3 0 -39 -24 -81
-52 -42 -29 -100 -69 -130 -88 -124 -81 -732 -495 -938 -640 -222 -155 -372
-258 -394 -269 -20 -11 -23 -9 -36 23 -8 20 -15 40 -15 45 0 10 28 31 260 195
249 175 539 374 1010 691 146 98 299 204 340 236 55 42 84 58 108 58 l33 1
-30 -42z m-4458 -410 c119 -79 360 -240 534 -358 175 -118 335 -225 355 -239
33 -21 36 -26 24 -40 -8 -9 -34 -77 -59 -151 -25 -74 -60 -169 -77 -210 -18
-41 -45 -111 -60 -155 -44 -128 -72 -197 -76 -192 -6 5 76 251 129 387 47 121
91 247 101 292 4 18 1 32 -10 43 -32 31 -209 161 -294 215 -47 29 -159 106
-250 170 -91 64 -239 164 -330 223 -172 111 -233 156 -214 157 6 0 109 -64
227 -142z m2827 -262 c0 -2 -8 -10 -17 -17 -16 -13 -17 -12 -4 4 13 16 21 21
21 13z m-200 -141 c-7 -8 -17 -15 -23 -15 -6 0 -2 7 9 15 25 19 30 19 14 0z
m-2252 -109 c17 -19 17 -19 -13 -2 -16 10 -43 29 -60 43 l-30 25 43 -23 c23
-13 50 -32 60 -43z m182 -132 c0 -2 -9 0 -20 6 -11 6 -20 13 -20 16 0 2 9 0
20 -6 11 -6 20 -13 20 -16z m1773 -6 c3 -13 9 -33 12 -45 5 -15 3 -23 -4 -23
-7 0 -9 4 -6 10 3 5 2 17 -3 27 -9 14 -10 14 -17 -6 -4 -13 -1 -29 7 -39 9
-13 7 -12 -10 2 -22 19 -22 19 -23 0 0 -14 -4 -11 -14 11 -20 43 -18 53 13 69
36 20 39 20 45 -6z m-1806 -424 c-63 -187 -145 -427 -182 -534 -105 -306 -281
-832 -289 -862 -3 -16 -3 -28 0 -28 33 0 333 193 734 474 222 155 561 375 535
348 -6 -6 -67 -51 -137 -99 -70 -48 -243 -171 -384 -272 -141 -101 -291 -205
-333 -230 -42 -26 -107 -70 -146 -97 -38 -27 -110 -74 -159 -104 -49 -30 -115
-79 -147 -109 -33 -29 -59 -50 -59 -46 0 4 39 119 86 254 47 135 121 350 165
476 180 530 248 725 281 810 20 50 52 144 73 210 41 132 67 190 72 164 2 -9
-47 -169 -110 -355z m1847 296 l7 -25 -15 25 c-9 14 -15 32 -15 40 0 13 1 13
8 0 5 -8 12 -26 15 -40z m-52 -17 c-2 -12 -6 -23 -7 -23 -1 0 -5 11 -7 23 -3
14 0 24 7 24 7 0 10 -10 7 -24z m-483 -488 c100 -68 240 -163 309 -211 70 -47
179 -121 242 -165 63 -44 161 -112 218 -151 56 -38 102 -72 102 -75 0 -10
-116 61 -225 136 -60 43 -153 106 -205 141 -52 35 -162 110 -245 166 -311 213
-374 254 -387 254 -14 0 -55 -26 -268 -172 -191 -130 -233 -158 -395 -263 -82
-53 -202 -132 -265 -174 -143 -97 -149 -100 -131 -78 7 9 208 148 445 307 237
160 469 318 516 350 47 33 90 60 96 60 6 0 93 -56 193 -125z m521 -661 c0 -2
-9 0 -20 6 -11 6 -20 13 -20 16 0 2 9 0 20 -6 11 -6 20 -13 20 -16z"/>
<path d="M5321 6334 c0 -11 3 -14 6 -6 3 7 2 16 -1 19 -3 4 -6 -2 -5 -13z"/>
</g>
</svg>
